<?xml version="1.0" standalone="no"?>
<!DOCTYPE svg PUBLIC "-//W3C//DTD SVG 20010904//EN"
 "http://www.w3.org/TR/2001/REC-SVG-20010904/DTD/svg10.dtd">
<svg version="1.0" xmlns="http://www.w3.org/2000/svg"
 width="200.000000pt" height="200.000000pt" viewBox="0 0 200.000000 200.000000"
 preserveAspectRatio="xMidYMid meet">
<metadata>
Created by potrace 1.14, written by Peter Selinger 2001-2017
</metadata>
<g transform="translate(0.000000,200.000000) scale(0.100000,-0.100000)"
fill="#000000" stroke="none">
<path d="M834 1986 c-154 -29 -259 -70 -379 -148 -204 -131 -358 -344 -422
-584 -23 -87 -26 -118 -26 -254 0 -135 3 -167 25 -251 96 -355 362 -621 718
-717 83 -22 115 -25 250 -25 135 0 167 3 250 25 356 96 622 362 718 717 22 84
25 116 25 251 0 135 -3 167 -25 251 -96 356 -365 625 -718 716 -118 31 -309
39 -416 19z m303 -282 c-3 -3 -12 -4 -19 -1 -8 3 -5 6 6 6 11 1 17 -2 13 -5z
m-329 -110 c2 -11 -4 -26 -12 -33 -31 -26 -71 14 -45 45 17 21 53 14 57 -12z
m568 -311 c-10 -10 -19 5 -10 18 6 11 8 11 12 0 2 -7 1 -15 -2 -18z m-392 11
c22 -8 20 -51 -2 -63 -37 -20 -70 27 -40 57 14 14 20 14 42 6z m-341 -111
c-13 -2 -33 -2 -45 0 -13 2 -3 4 22 4 25 0 35 -2 23 -4z m364 1 c-3 -3 -12 -4
-19 -1 -8 3 -5 6 6 6 11 1 17 -2 13 -5z m550 0 c-3 -3 -12 -4 -19 -1 -8 3 -5
6 6 6 11 1 17 -2 13 -5z m-1363 -150 c9 -8 16 -26 16 -39 0 -33 -26 -55 -66
-55 l-34 0 0 55 0 55 34 0 c19 0 42 -7 50 -16z m115 -25 c7 -23 15 -47 18 -55
4 -10 -3 -14 -21 -14 -16 0 -26 6 -26 15 0 8 -7 15 -15 15 -8 0 -15 -7 -15
-15 0 -8 -7 -15 -14 -15 -13 0 -13 4 0 35 7 19 14 44 14 55 0 14 7 20 23 20
19 0 26 -8 36 -41z m87 32 c-8 -12 3 -41 15 -41 5 0 9 11 9 25 0 25 1 25 82
25 89 0 118 -14 118 -56 0 -39 -25 -54 -94 -54 l-64 0 5 44 c8 64 -13 68 -40
7 -12 -28 -24 -51 -27 -51 -3 0 -18 25 -33 55 l-27 55 31 0 c16 0 28 -4 25 -9z
m358 -7 c5 -12 2 -15 -11 -9 -31 12 -37 10 -41 -8 -3 -15 0 -18 17 -12 15 5
21 2 21 -10 0 -12 -5 -15 -21 -10 -19 6 -21 4 -17 -19 4 -21 1 -26 -16 -26
-19 0 -21 6 -21 55 l0 55 41 0 c29 0 44 -5 48 -16z m104 4 c17 -17 15 -73 -2
-87 -25 -21 -69 -9 -84 22 -12 24 -11 31 2 53 18 26 63 33 84 12z m122 -10
c-1 -22 -1 -23 -15 -4 -14 18 -15 16 -15 -32 0 -45 -3 -52 -20 -52 -17 0 -20
7 -20 52 0 48 -1 50 -15 32 -14 -19 -14 -18 -15 4 0 20 5 22 50 22 45 0 50 -2
50 -22z m107 -4 c15 -24 15 -29 2 -53 -28 -49 -99 -32 -99 24 0 55 67 75 97
29z m145 9 c22 -20 23 -51 1 -75 -33 -36 -93 -13 -93 37 0 49 55 72 92 38z
m117 -8 c3 -19 3 -19 -16 -2 -26 22 -33 22 -33 -4 0 -15 5 -19 15 -15 9 3 15
0 15 -9 0 -9 -6 -12 -15 -9 -11 5 -15 -1 -15 -20 0 -19 -5 -26 -20 -26 -18 0
-20 7 -20 56 l0 55 42 -3 c34 -2 44 -7 47 -23z m101 10 c0 -12 -4 -13 -19 -5
-27 14 -31 13 -31 -11 0 -16 4 -19 20 -14 14 5 20 2 20 -10 0 -12 -5 -15 -21
-10 -19 6 -21 4 -17 -19 4 -21 1 -26 -16 -26 -19 0 -21 6 -21 55 l0 55 43 0
c31 0 42 -4 42 -15z m55 -40 c0 -48 -2 -55 -20 -55 -18 0 -20 7 -20 55 0 48 2
55 20 55 18 0 20 -7 20 -55z m105 51 c0 -2 3 -13 7 -23 6 -17 6 -17 -15 0 -27
24 -42 14 -42 -28 0 -38 18 -56 32 -31 11 20 28 21 28 2 0 -28 -59 -35 -84
-10 -36 36 -9 94 45 94 16 0 29 -2 29 -4z m61 -47 c-4 -66 17 -63 38 5 20 64
48 61 68 -6 18 -62 33 -61 33 2 0 43 3 50 20 50 17 0 20 -7 20 -50 0 -48 12
-66 24 -35 8 22 25 18 19 -5 -5 -18 -14 -20 -74 -20 -55 0 -69 3 -69 15 0 9
-9 15 -21 15 -15 0 -19 -5 -15 -15 4 -12 -3 -15 -37 -15 l-42 0 0 55 c0 48 2
55 20 55 18 0 20 -5 16 -51z m-681 -233 c16 -21 9 -60 -13 -64 -40 -8 -64 47
-29 67 23 14 28 13 42 -3z m390 -62 c0 -8 -4 -12 -10 -9 -5 3 -10 10 -10 16 0
5 5 9 10 9 6 0 10 -7 10 -16z m-577 -276 c15 -23 1 -48 -27 -48 -33 0 -46 38
-20 57 21 15 34 13 47 -9z m334 -134 c-3 -3 -12 -4 -19 -1 -8 3 -5 6 6 6 11 1
17 -2 13 -5z"/>
<path d="M150 995 c0 -28 4 -44 10 -40 6 3 10 21 10 40 0 19 -4 37 -10 40 -6
4 -10 -12 -10 -40z"/>
<path d="M260 999 c0 -11 4 -18 10 -14 5 3 7 12 3 20 -7 21 -13 19 -13 -6z"/>
<path d="M500 995 c0 -25 5 -45 10 -45 6 0 10 20 10 45 0 25 -4 45 -10 45 -5
0 -10 -20 -10 -45z"/>
<path d="M560 995 c0 -28 4 -44 10 -40 6 3 10 21 10 40 0 19 -4 37 -10 40 -6
4 -10 -12 -10 -40z"/>
<path d="M804 1026 c-9 -22 0 -69 13 -73 15 -5 27 38 18 66 -7 24 -23 27 -31
7z"/>
<path d="M1030 995 c0 -33 4 -45 13 -42 7 2 12 20 12 42 0 22 -5 40 -12 43 -9
2 -13 -10 -13 -43z"/>
<path d="M1180 995 c0 -33 4 -45 13 -42 7 2 12 20 12 42 0 22 -5 40 -12 43 -9
2 -13 -10 -13 -43z"/>
<path d="M1720 995 c0 -8 5 -15 10 -15 6 0 10 7 10 15 0 8 -4 15 -10 15 -5 0
-10 -7 -10 -15z"/>
</g>
</svg>
