<svg xmlns="http://www.w3.org/2000/svg" x="0px" y="0px" width="50" height="50" viewBox="0 0 50 50">
    <path d="M 5.5 9 A 1.50015 1.50015 0 1 0 5.5 12 L 42.5 12 A 1.50015 1.50015 0 1 0 42.5 9 L 5.5 9 z M 5.5 22.5 A 1.50015 1.50015 0 1 0 5.5 25.5 L 42.5 25.5 A 1.50015 1.50015 0 1 0 42.5 22.5 L 5.5 22.5 z M 5.5 36 A 1.50015 1.50015 0 1 0 5.5 39 L 42.5 39 A 1.50015 1.50015 0 1 0 42.5 36 L 5.5 36 z" strokr="currentColor" stroke-width="1.333">
    </path>
    <style>
        html[data-theme="light"] {
            path {
                stroke: #2b2d30;
                fill: #2b2d30;
            }
        }
        html[data-theme="dark"] {
            path { 
                stroke: #fff; 
                fill: #fff;
            }
        }
    </style>
</svg>